<?xml version="1.0" encoding="utf-8"?>
<svg viewBox="0 0 800 400" xmlns="http://www.w3.org/2000/svg">
  <path d="M 214.332 261.445 C 220.037 253.744 224.6 244.191 228.023 232.781 C 231.445 221.373 233.156 207.541 233.156 191.284 C 233.156 177.88 231.659 164.903 228.664 152.353 C 225.669 139.804 220.892 128.611 214.332 118.771 C 207.772 108.931 199.217 101.088 188.664 95.241 C 178.111 89.395 165.277 86.471 150.161 86.471 C 135.045 86.471 122.211 89.395 111.659 95.241 C 101.105 101.088 92.549 108.931 85.989 118.771 C 79.431 128.611 74.652 139.804 71.657 152.353 C 68.664 164.903 67.165 177.88 67.165 191.284 C 67.165 204.119 68.664 216.596 71.657 228.717 C 74.652 240.839 79.431 251.748 85.989 261.445 C 92.549 271.141 101.105 278.915 111.659 284.761 C 122.211 290.608 135.045 293.531 150.161 293.531 C 157.291 293.531 162.709 293.245 166.417 292.676 C 170.125 292.104 173.691 290.964 177.113 289.253 L 148.449 263.156 L 179.68 229.787 Z M 224.172 332.033 C 203.923 343.727 179.252 349.573 150.161 349.573 C 126.773 349.573 105.74 345.509 87.059 337.381 C 68.377 329.252 52.62 318.059 39.787 303.797 C 26.952 289.537 17.112 272.781 10.267 253.531 C 3.423 234.279 0 213.529 0 191.284 C 0 168.467 3.423 147.291 10.267 127.755 C 17.112 108.219 26.952 91.176 39.787 76.631 C 52.62 62.085 68.377 50.677 87.059 42.407 C 105.74 34.136 126.773 30 150.161 30 C 173.833 30 194.939 34.136 213.477 42.407 C 232.015 50.677 247.701 62.085 260.536 76.631 C 273.371 91.176 283.209 108.219 290.055 127.755 C 296.9 147.291 300.323 168.467 300.323 191.284 C 300.323 213.529 296.9 234.208 290.055 253.316 C 283.209 272.425 273.371 289.253 260.536 303.797 L 298.611 338.451 L 267.381 370.964 Z M 547.167 342.729 L 547.167 121.552 L 486.417 121.552 L 486.417 237.488 C 486.417 260.019 482.709 276.204 475.295 286.044 C 467.879 295.884 455.9 300.803 439.357 300.803 C 424.813 300.803 414.688 296.312 408.984 287.328 C 403.28 278.344 400.428 264.725 400.428 246.471 L 400.428 121.552 L 339.679 121.552 L 339.679 257.595 C 339.679 271.284 340.891 283.763 343.315 295.028 C 345.74 306.293 349.947 315.848 355.935 323.691 C 361.925 331.535 370.124 337.595 380.535 341.873 C 390.944 346.152 404.277 348.291 420.535 348.291 C 433.369 348.291 445.919 345.437 458.181 339.735 C 470.447 334.031 480.428 324.761 488.128 311.927 L 489.412 311.927 L 489.412 342.729 Z M 649.839 226.365 L 570.267 342.729 L 638.288 342.729 L 684.492 272.996 L 730.695 342.729 L 800 342.729 L 718.289 225.081 L 791.016 121.552 L 723.849 121.552 L 685.348 179.305 L 646.417 121.552 L 577.112 121.552 Z" style="fill: rgb(8, 16, 24);"/>
</svg>